<?xml version="1.0" encoding="utf-8"?>
<!-- Generator: Adobe Illustrator 28.3.0, SVG Export Plug-In . SVG Version: 6.00 Build 0)  -->
<svg version="1.1" id="Capa_1" xmlns="http://www.w3.org/2000/svg" xmlns:xlink="http://www.w3.org/1999/xlink" x="0px" y="0px"
	 viewBox="0 0 48 48" style="enable-background:new 0 0 48 48;" xml:space="preserve">
<style type="text/css">
	.st0{fill:#FFC526;}
</style>
<path class="st0" d="M26.5,0c2.7,0,4.1,0,5.3,0.1h0.5c0.5,0,1.1,0,1.7,0.1c2.6,0.1,4.3,0.5,5.8,1.1S42.6,2.7,44,4
	c1.2,1.2,2.2,2.7,2.8,4.3c0.6,1.5,1,3.3,1.1,5.8c0,0.6,0.1,1.2,0.1,1.7v0.5c0,1.2,0.1,2.6,0.1,5.3v1.8v3.1c0,1.8,0,3.5-0.1,5.3v0.5
	c0,0.5,0,1.1-0.1,1.7c-0.1,2.6-0.5,4.3-1.1,5.8c-0.6,1.6-1.5,3.1-2.8,4.3c-1.2,1.2-2.7,2.2-4.3,2.8c-1.5,0.6-3.3,1-5.8,1.1l-1.7,0.1
	h-0.5c-1.2,0-2.6,0.1-5.3,0.1h-1.8h-3.1c-1.8,0-3.5,0-5.3-0.1h-0.5c-0.6,0-1.1,0-1.7-0.1c-2.6-0.1-4.3-0.5-5.8-1.1
	c-1.5-0.8-3-1.7-4.2-2.9s-2.2-2.7-2.8-4.3c-0.6-1.5-1-3.3-1.1-5.8L0,32.2v-0.5c0-1.7,0-3.5,0-5.2v-4.9c0-1.8,0-3.5,0.1-5.3v-0.5
	c0-0.5,0-1.1,0.1-1.7c0.1-2.6,0.5-4.3,1.1-5.8C1.9,6.7,2.8,5.2,4,4s2.6-2.2,4.2-2.8c1.5-0.6,3.3-1,5.8-1.1c0.6,0,1.2-0.1,1.7-0.1
	h0.5c1.8,0,3.6,0,5.3,0H26.5z M24,12c-3.2,0-6.2,1.3-8.5,3.5C13.3,17.8,12,20.8,12,24s1.3,6.2,3.5,8.5S20.8,36,24,36
	s6.2-1.3,8.5-3.5c2.3-2.3,3.5-5.3,3.5-8.5s-1.3-6.2-3.5-8.5C30.2,13.3,27.2,12,24,12z M24,16.8c0.9,0,1.9,0.2,2.8,0.5
	c0.9,0.4,1.7,0.9,2.3,1.6c0.7,0.7,1.2,1.5,1.6,2.3c0.4,0.9,0.5,1.8,0.5,2.8c0,0.9-0.2,1.9-0.5,2.8c-0.4,0.9-0.9,1.7-1.6,2.3
	c-0.7,0.7-1.5,1.2-2.3,1.6c-0.9,0.4-1.8,0.5-2.8,0.5c-1.9,0-3.7-0.8-5.1-2.1c-1.4-1.4-2.1-3.2-2.1-5.1s0.8-3.7,2.1-5.1
	C20.3,17.6,22.1,16.8,24,16.8 M36.6,8.4c-0.8,0-1.6,0.3-2.1,0.9c-0.6,0.6-0.9,1.3-0.9,2.1s0.3,1.6,0.9,2.1c0.6,0.6,1.3,0.9,2.1,0.9
	s1.6-0.3,2.1-0.9c0.6-0.6,0.9-1.3,0.9-2.1s-0.3-1.6-0.9-2.1C38.2,8.7,37.4,8.4,36.6,8.4z"/>
</svg>
