<svg width="48" height="48" viewBox="0 0 48 48" fill="none" xmlns="http://www.w3.org/2000/svg">
<g clip-path="url(#clip0_9_50)">
<mask id="path-1-inside-1_9_50" fill="white">
<path d="M26.4672 0C29.1671 0.00719983 30.5374 0.0215995 31.7206 0.0551987L32.1861 0.0719982C32.7237 0.0911977 33.2541 0.115197 33.8949 0.143996C36.4483 0.263993 38.1906 0.667184 39.7194 1.25997C41.3033 1.86956 42.6376 2.69513 43.9719 4.0271C45.1928 5.22643 46.1371 6.67777 46.739 8.2798C47.3318 9.80856 47.735 11.5509 47.855 14.1069C47.8838 14.7452 47.9077 15.2756 47.9269 15.8156L47.9413 16.2812C47.9773 17.462 47.9917 18.8323 47.9965 21.5323L47.9989 23.3226V26.4666C48.0048 28.2171 47.9864 29.9676 47.9437 31.7176L47.9293 32.1832C47.9101 32.7232 47.8861 33.2536 47.8574 33.892C47.7374 36.4479 47.3294 38.1879 46.739 39.719C46.1371 41.3211 45.1928 42.7724 43.9719 43.9717C42.7727 45.1926 41.3213 46.1369 39.7194 46.7389C38.1906 47.3317 36.4483 47.7348 33.8949 47.8548L32.1861 47.9268L31.7206 47.9412C30.5374 47.9748 29.1671 47.9916 26.4672 47.9964L24.6769 47.9988H21.5355C19.7842 48.005 18.0329 47.9866 16.2821 47.9436L15.8166 47.9292C15.2469 47.9077 14.6773 47.8829 14.1079 47.8548C11.5544 47.7348 9.81207 47.3317 8.28095 46.7389C6.67982 46.1366 5.22936 45.1923 4.03076 43.9717C2.80909 42.7726 1.86393 41.3213 1.2613 39.719C0.668532 38.1903 0.265352 36.4479 0.145358 33.892L0.0733613 32.1832L0.0613622 31.7176C0.017123 29.9676 -0.00287816 28.2171 0.00136504 26.4666V21.5323C-0.00527757 19.7818 0.0123234 18.0312 0.0541626 16.2812L0.0709616 15.8156C0.0901607 15.2756 0.114159 14.7452 0.142958 14.1069C0.262952 11.5509 0.666131 9.81096 1.2589 8.2798C1.86294 6.67711 2.80976 5.22572 4.03316 4.0271C5.23107 2.80685 6.68068 1.86253 8.28095 1.25997C9.81207 0.667184 11.552 0.263993 14.1079 0.143996C14.7462 0.115197 15.279 0.0911977 15.8166 0.0719982L16.2821 0.0575984C18.0321 0.0149581 19.7826 -0.00344319 21.5331 0.00239977L26.4672 0ZM24.0002 11.9997C20.8177 11.9997 17.7656 13.264 15.5153 15.5143C13.265 17.7647 12.0008 20.8169 12.0008 23.9994C12.0008 27.1819 13.265 30.2341 15.5153 32.4845C17.7656 34.7349 20.8177 35.9991 24.0002 35.9991C27.1826 35.9991 30.2347 34.7349 32.485 32.4845C34.7353 30.2341 35.9995 27.1819 35.9995 23.9994C35.9995 20.8169 34.7353 17.7647 32.485 15.5143C30.2347 13.264 27.1826 11.9997 24.0002 11.9997ZM24.0002 16.7996C24.9456 16.7994 25.8819 16.9855 26.7554 17.3472C27.629 17.7089 28.4228 18.2391 29.0914 18.9075C29.7601 19.576 30.2905 20.3696 30.6525 21.2431C31.0145 22.1165 31.2008 23.0527 31.201 23.9982C31.2011 24.9437 31.0151 25.88 30.6534 26.7536C30.2917 27.6271 29.7616 28.4209 29.0931 29.0896C28.4247 29.7583 27.6311 30.2888 26.7576 30.6507C25.8842 31.0127 24.948 31.1991 24.0026 31.1992C22.0931 31.1992 20.2618 30.4407 18.9116 29.0905C17.5614 27.7402 16.8029 25.9089 16.8029 23.9994C16.8029 22.0899 17.5614 20.2586 18.9116 18.9084C20.2618 17.5581 22.0931 16.7996 24.0026 16.7996M36.6019 8.3998C35.8063 8.3998 35.0433 8.71586 34.4807 9.27846C33.9181 9.84105 33.6021 10.6041 33.6021 11.3997C33.6021 12.1954 33.9181 12.9584 34.4807 13.521C35.0433 14.0836 35.8063 14.3997 36.6019 14.3997C37.3975 14.3997 38.1606 14.0836 38.7231 13.521C39.2857 12.9584 39.6018 12.1954 39.6018 11.3997C39.6018 10.6041 39.2857 9.84105 38.7231 9.27846C38.1606 8.71586 37.3975 8.3998 36.6019 8.3998Z"/>
</mask>
<g filter="url(#filter0_i_9_50)">
<path d="M26.4672 0C29.1671 0.00719983 30.5374 0.0215995 31.7206 0.0551987L32.1861 0.0719982C32.7237 0.0911977 33.2541 0.115197 33.8949 0.143996C36.4483 0.263993 38.1906 0.667184 39.7194 1.25997C41.3033 1.86956 42.6376 2.69513 43.9719 4.0271C45.1928 5.22643 46.1371 6.67777 46.739 8.2798C47.3318 9.80856 47.735 11.5509 47.855 14.1069C47.8838 14.7452 47.9077 15.2756 47.9269 15.8156L47.9413 16.2812C47.9773 17.462 47.9917 18.8323 47.9965 21.5323L47.9989 23.3226V26.4666C48.0048 28.2171 47.9864 29.9676 47.9437 31.7176L47.9293 32.1832C47.9101 32.7232 47.8861 33.2536 47.8574 33.892C47.7374 36.4479 47.3294 38.1879 46.739 39.719C46.1371 41.3211 45.1928 42.7724 43.9719 43.9717C42.7727 45.1926 41.3213 46.1369 39.7194 46.7389C38.1906 47.3317 36.4483 47.7348 33.8949 47.8548L32.1861 47.9268L31.7206 47.9412C30.5374 47.9748 29.1671 47.9916 26.4672 47.9964L24.6769 47.9988H21.5355C19.7842 48.005 18.0329 47.9866 16.2821 47.9436L15.8166 47.9292C15.2469 47.9077 14.6773 47.8829 14.1079 47.8548C11.5544 47.7348 9.81207 47.3317 8.28095 46.7389C6.67982 46.1366 5.22936 45.1923 4.03076 43.9717C2.80909 42.7726 1.86393 41.3213 1.2613 39.719C0.668532 38.1903 0.265352 36.4479 0.145358 33.892L0.0733613 32.1832L0.0613622 31.7176C0.017123 29.9676 -0.00287816 28.2171 0.00136504 26.4666V21.5323C-0.00527757 19.7818 0.0123234 18.0312 0.0541626 16.2812L0.0709616 15.8156C0.0901607 15.2756 0.114159 14.7452 0.142958 14.1069C0.262952 11.5509 0.666131 9.81096 1.2589 8.2798C1.86294 6.67711 2.80976 5.22572 4.03316 4.0271C5.23107 2.80685 6.68068 1.86253 8.28095 1.25997C9.81207 0.667184 11.552 0.263993 14.1079 0.143996C14.7462 0.115197 15.279 0.0911977 15.8166 0.0719982L16.2821 0.0575984C18.0321 0.0149581 19.7826 -0.00344319 21.5331 0.00239977L26.4672 0ZM24.0002 11.9997C20.8177 11.9997 17.7656 13.264 15.5153 15.5143C13.265 17.7647 12.0008 20.8169 12.0008 23.9994C12.0008 27.1819 13.265 30.2341 15.5153 32.4845C17.7656 34.7349 20.8177 35.9991 24.0002 35.9991C27.1826 35.9991 30.2347 34.7349 32.485 32.4845C34.7353 30.2341 35.9995 27.1819 35.9995 23.9994C35.9995 20.8169 34.7353 17.7647 32.485 15.5143C30.2347 13.264 27.1826 11.9997 24.0002 11.9997ZM24.0002 16.7996C24.9456 16.7994 25.8819 16.9855 26.7554 17.3472C27.629 17.7089 28.4228 18.2391 29.0914 18.9075C29.7601 19.576 30.2905 20.3696 30.6525 21.2431C31.0145 22.1165 31.2008 23.0527 31.201 23.9982C31.2011 24.9437 31.0151 25.88 30.6534 26.7536C30.2917 27.6271 29.7616 28.4209 29.0931 29.0896C28.4247 29.7583 27.6311 30.2888 26.7576 30.6507C25.8842 31.0127 24.948 31.1991 24.0026 31.1992C22.0931 31.1992 20.2618 30.4407 18.9116 29.0905C17.5614 27.7402 16.8029 25.9089 16.8029 23.9994C16.8029 22.0899 17.5614 20.2586 18.9116 18.9084C20.2618 17.5581 22.0931 16.7996 24.0026 16.7996M36.6019 8.3998C35.8063 8.3998 35.0433 8.71586 34.4807 9.27846C33.9181 9.84105 33.6021 10.6041 33.6021 11.3997C33.6021 12.1954 33.9181 12.9584 34.4807 13.521C35.0433 14.0836 35.8063 14.3997 36.6019 14.3997C37.3975 14.3997 38.1606 14.0836 38.7231 13.521C39.2857 12.9584 39.6018 12.1954 39.6018 11.3997C39.6018 10.6041 39.2857 9.84105 38.7231 9.27846C38.1606 8.71586 37.3975 8.3998 36.6019 8.3998Z" fill="white"/>
</g>
<path d="M26.4672 0L26.4699 -1L26.4667 -1L26.4672 0ZM31.7206 0.0551987L31.7566 -0.94418L31.749 -0.944398L31.7206 0.0551987ZM32.1861 0.0719982L32.1501 1.07135L32.1504 1.07136L32.1861 0.0719982ZM33.8949 0.143996L33.9418 -0.854903L33.9398 -0.854995L33.8949 0.143996ZM39.7194 1.25997L39.3578 2.19233L39.3602 2.19324L39.7194 1.25997ZM43.9719 4.0271L43.2654 4.73486L43.2711 4.74046L43.9719 4.0271ZM46.739 8.2798L45.8029 8.63154L45.8066 8.64132L46.739 8.2798ZM47.855 14.1069L48.8539 14.0618L48.8539 14.06L47.855 14.1069ZM47.9269 15.8156L48.9265 15.7847L48.9263 15.7801L47.9269 15.8156ZM47.9413 16.2812L48.9409 16.2507L48.9409 16.2503L47.9413 16.2812ZM47.9965 21.5323L48.9965 21.5309L48.9965 21.5305L47.9965 21.5323ZM47.9989 23.3226L48.9989 23.3226L48.9989 23.3213L47.9989 23.3226ZM47.9989 26.4666L46.9989 26.4666L46.9989 26.4699L47.9989 26.4666ZM47.9437 31.7176L48.9433 31.7485L48.9434 31.742L47.9437 31.7176ZM47.9293 32.1832L48.9287 32.2188L48.9289 32.2141L47.9293 32.1832ZM47.8574 33.892L48.8563 33.9389L48.8563 33.937L47.8574 33.892ZM46.739 39.719L45.8059 39.3593L45.8029 39.3673L46.739 39.719ZM43.9719 43.9717L43.2711 43.2584L43.2648 43.2646L43.2586 43.271L43.9719 43.9717ZM39.7194 46.7389L39.3676 45.8027L39.3578 45.8065L39.7194 46.7389ZM33.8949 47.8548L33.937 48.854L33.9418 48.8537L33.8949 47.8548ZM32.1861 47.9268L32.2171 48.9264L32.2282 48.926L32.1861 47.9268ZM31.7206 47.9412L31.749 48.9408L31.7515 48.9408L31.7206 47.9412ZM26.4672 47.9964L26.4686 48.9964L26.469 48.9964L26.4672 47.9964ZM24.6769 47.9988L24.6769 48.9988L24.6783 48.9988L24.6769 47.9988ZM21.5355 47.9988L21.5355 46.9988L21.532 46.9988L21.5355 47.9988ZM16.2821 47.9436L16.2512 48.9432L16.2576 48.9433L16.2821 47.9436ZM15.8166 47.9292L15.7787 48.9285L15.7857 48.9288L15.8166 47.9292ZM14.1079 47.8548L14.157 46.856L14.1548 46.8559L14.1079 47.8548ZM8.28095 46.7389L8.64201 45.8063L8.63301 45.8029L8.28095 46.7389ZM4.03076 43.9717L4.74425 43.2711L4.73781 43.2645L4.73124 43.2581L4.03076 43.9717ZM1.2613 39.719L2.19734 39.367L2.19367 39.3575L1.2613 39.719ZM0.145358 33.892L-0.853767 33.9341L-0.853542 33.9389L0.145358 33.892ZM0.0733613 32.1832L-0.926307 32.209L-0.926096 32.2172L-0.925752 32.2253L0.0733613 32.1832ZM0.0613622 31.7176L-0.938318 31.7429L-0.938306 31.7434L0.0613622 31.7176ZM0.00136504 26.4666L1.00137 26.469V26.4666H0.00136504ZM0.00136504 21.5323L1.00137 21.5323L1.00136 21.5285L0.00136504 21.5323ZM0.0541626 16.2812L-0.945261 16.2451L-0.945552 16.2573L0.0541626 16.2812ZM0.0709616 15.8156L1.07031 15.8517L1.07033 15.8511L0.0709616 15.8156ZM0.142958 14.1069L-0.855944 14.06L-0.856026 14.0618L0.142958 14.1069ZM1.2589 8.2798L2.19149 8.64084L2.19465 8.63247L1.2589 8.2798ZM4.03316 4.0271L4.733 4.74141L4.73995 4.73459L4.74677 4.72765L4.03316 4.0271ZM8.28095 1.25997L8.63335 2.19587L8.64199 2.19252L8.28095 1.25997ZM14.1079 0.143996L14.0628 -0.854989L14.061 -0.854903L14.1079 0.143996ZM15.8166 0.0719982L15.7857 -0.927535L15.7809 -0.927365L15.8166 0.0719982ZM16.2821 0.0575984L16.2578 -0.942126L16.2512 -0.941924L16.2821 0.0575984ZM21.5331 0.00239977L21.5297 1.0024L21.5336 1.0024L21.5331 0.00239977ZM24.0002 11.9997V10.9997V11.9997ZM12.0008 23.9994H11.0008H12.0008ZM24.0002 35.9991V34.9991V35.9991ZM35.9995 23.9994L34.9995 23.9994L35.9995 23.9994ZM24.0026 31.1992L24.0026 32.1992L24.0027 32.1992L24.0026 31.1992ZM26.4646 0.999996C29.1639 1.00719 30.523 1.02159 31.6922 1.0548L31.749 -0.944398C30.5519 -0.978394 29.1703 -0.992795 26.4699 -0.999996L26.4646 0.999996ZM31.6845 1.05455L32.1501 1.07135L32.2222 -0.927351L31.7566 -0.944151L31.6845 1.05455ZM32.1504 1.07136C32.6825 1.09036 33.2079 1.11413 33.85 1.14299L33.9398 -0.854995C33.3002 -0.883738 32.7649 -0.907968 32.2218 -0.927365L32.1504 1.07136ZM33.8479 1.14289C36.308 1.2585 37.9423 1.64342 39.3578 2.19233L40.0809 0.327612C38.439 -0.309052 36.5887 -0.730514 33.9418 -0.854901L33.8479 1.14289ZM39.3602 2.19324C40.8196 2.75491 42.0342 3.50571 43.2655 4.73484L44.6784 3.31937C43.2411 1.88456 41.7869 0.984197 40.0785 0.3267L39.3602 2.19324ZM43.2711 4.74046C44.3881 5.8378 45.2522 7.16572 45.8029 8.63152L47.6751 7.92808C47.022 6.18982 45.9974 4.61507 44.6728 3.31375L43.2711 4.74046ZM45.8066 8.64132C46.3555 10.0569 46.7404 11.6912 46.8561 14.1538L48.8539 14.06C48.7295 11.4106 48.308 9.56026 47.6714 7.91828L45.8066 8.64132ZM46.856 14.1519C46.8848 14.7914 46.9086 15.3168 46.9276 15.8511L48.9263 15.7801C48.9069 15.2344 48.8827 14.6991 48.8539 14.0618L46.856 14.1519ZM46.9274 15.8465L46.9418 16.3121L48.9409 16.2503L48.9265 15.7847L46.9274 15.8465ZM46.9418 16.3117C46.9773 17.4769 46.9917 18.8347 46.9965 21.5341L48.9965 21.5305C48.9917 18.83 48.9774 17.4471 48.9409 16.2507L46.9418 16.3117ZM46.9965 21.5336L46.9989 23.324L48.9989 23.3213L48.9965 21.5309L46.9965 21.5336ZM46.9989 23.3226V26.4666H48.9989V23.3226H46.9989ZM46.9989 26.4699C47.0048 28.2112 46.9865 29.9525 46.944 31.6933L48.9434 31.742C48.9863 29.9827 49.0048 28.223 48.9989 26.4632L46.9989 26.4699ZM46.9442 31.6867L46.9298 32.1523L48.9289 32.2141L48.9433 31.7485L46.9442 31.6867ZM46.93 32.1477C46.911 32.682 46.8872 33.2074 46.8584 33.8469L48.8563 33.937C48.8851 33.2998 48.9093 32.7644 48.9287 32.2188L46.93 32.1477ZM46.8585 33.8451C46.7429 36.3055 46.3538 37.9385 45.806 39.3593L47.6721 40.0788C48.305 38.4372 48.7318 36.5903 48.8563 33.9389L46.8585 33.8451ZM45.8029 39.3673C45.2522 40.8331 44.3881 42.161 43.2711 43.2584L44.6728 44.6851C45.9974 43.3838 47.022 41.809 47.6751 40.0708L45.8029 39.3673ZM43.2586 43.271C42.1613 44.388 40.8334 45.252 39.3676 45.8028L40.0711 47.675C41.8093 47.0218 43.384 45.9972 44.6853 44.6725L43.2586 43.271ZM39.3578 45.8065C37.9423 46.3554 36.308 46.7403 33.8479 46.8559L33.9418 48.8537C36.5887 48.7294 38.439 48.3079 40.0809 47.6712L39.3578 45.8065ZM33.8528 46.8557L32.144 46.9277L32.2282 48.926L33.9369 48.854L33.8528 46.8557ZM32.1552 46.9273L31.6896 46.9417L31.7515 48.9408L32.2171 48.9264L32.1552 46.9273ZM31.6922 46.9416C30.5226 46.9749 29.163 46.9916 26.4655 46.9964L26.469 48.9964C29.1712 48.9916 30.5522 48.9748 31.749 48.9408L31.6922 46.9416ZM26.4659 46.9964L24.6756 46.9988L24.6783 48.9988L26.4686 48.9964L26.4659 46.9964ZM24.6769 46.9988H21.5355V48.9988H24.6769V46.9988ZM21.532 46.9988C19.79 47.005 18.0481 46.9867 16.3067 46.9439L16.2576 48.9433C18.0177 48.9865 19.7784 49.005 21.539 48.9988L21.532 46.9988ZM16.3131 46.9441L15.8475 46.9297L15.7857 48.9288L16.2512 48.9432L16.3131 46.9441ZM15.8544 46.93C15.2885 46.9085 14.7227 46.8839 14.157 46.8561L14.0587 48.8536C14.6319 48.8818 15.2052 48.9068 15.7787 48.9285L15.8544 46.93ZM14.1548 46.8559C11.6949 46.7403 10.0603 46.3554 8.64199 45.8063L7.9199 47.6714C9.5638 48.3079 11.4139 48.7293 14.0609 48.8537L14.1548 46.8559ZM8.63301 45.8029C7.16804 45.2519 5.84093 44.3878 4.74425 43.2711L3.31727 44.6724C4.6178 45.9967 6.1916 47.0214 7.92889 47.6748L8.63301 45.8029ZM4.73124 43.2581C3.61346 42.1609 2.74867 40.833 2.19729 39.367L0.325316 40.0711C0.979191 41.8096 2.00472 43.3843 3.33028 44.6854L4.73124 43.2581ZM2.19367 39.3575C1.64479 37.942 1.25987 36.3076 1.14426 33.8451L-0.853542 33.9389C-0.729164 36.5882 -0.307731 38.4386 0.328937 40.0806L2.19367 39.3575ZM1.14447 33.8499L1.07247 32.1411L-0.925752 32.2253L-0.853756 33.9341L1.14447 33.8499ZM1.07303 32.1575L1.06103 31.6919L-0.938306 31.7434L-0.926307 32.209L1.07303 32.1575ZM1.06104 31.6924C1.01704 29.9516 0.997141 28.2103 1.00136 26.469L-0.998632 26.4641C-1.0029 28.2239 -0.982791 29.9837 -0.938318 31.7429L1.06104 31.6924ZM1.00137 26.4666V21.5323H-0.998635V26.4666H1.00137ZM1.00136 21.5285C0.99475 19.7872 1.01226 18.0459 1.05388 16.3051L-0.945552 16.2573C-0.987612 18.0166 -1.00531 19.7763 -0.998628 21.5361L1.00136 21.5285ZM1.05351 16.3173L1.07031 15.8517L-0.928388 15.7796L-0.945187 16.2451L1.05351 16.3173ZM1.07033 15.8511C1.08933 15.3168 1.11309 14.7914 1.14194 14.1519L-0.856026 14.0618C-0.884775 14.6991 -0.909007 15.2344 -0.928407 15.7801L1.07033 15.8511ZM1.14186 14.1538C1.25745 11.6915 1.64231 10.0593 2.19146 8.64083L0.326346 7.91877C-0.310049 9.56262 -0.731551 11.4104 -0.855942 14.06L1.14186 14.1538ZM2.19465 8.63247C2.74732 7.16607 3.61363 5.8381 4.733 4.74141L3.33333 3.3128C2.00589 4.61334 0.978555 6.18816 0.323155 7.92713L2.19465 8.63247ZM4.74677 4.72765C5.84281 3.61116 7.16915 2.74714 8.63333 2.19582L7.92856 0.324115C6.19221 0.977918 4.61933 2.00254 3.31955 3.32656L4.74677 4.72765ZM8.64199 2.19252C10.0604 1.64336 11.6926 1.2585 14.1548 1.1429L14.061 -0.854903C11.4114 -0.730508 9.56372 -0.308993 7.9199 0.327421L8.64199 2.19252ZM14.1529 1.14298C14.7922 1.11414 15.3202 1.09036 15.8523 1.07136L15.7809 -0.927365C15.2378 -0.907968 14.7002 -0.883746 14.0628 -0.854988L14.1529 1.14298ZM15.8475 1.07152L16.3131 1.05712L16.2512 -0.941924L15.7857 -0.927524L15.8475 1.07152ZM16.3065 1.0573C18.0472 1.01489 19.7885 0.996582 21.5297 1.00239L21.5364 -0.997595C19.7767 -1.00347 18.017 -0.98497 16.2578 -0.942105L16.3065 1.0573ZM21.5336 1.0024L26.4677 1L26.4667 -1L21.5326 -0.9976L21.5336 1.0024ZM24.0002 10.9997C20.5525 10.9997 17.246 12.3693 14.8082 14.8072L16.2224 16.2214C18.2852 14.1586 21.0829 12.9997 24.0002 12.9997V10.9997ZM14.8082 14.8072C12.3703 17.2452 11.0008 20.5517 11.0008 23.9994H13.0008C13.0008 21.0821 14.1596 18.2843 16.2224 16.2214L14.8082 14.8072ZM11.0008 23.9994C11.0008 27.4471 12.3703 30.7537 14.8082 33.1916L16.2224 31.7774C14.1596 29.7146 13.0008 26.9167 13.0008 23.9994H11.0008ZM14.8082 33.1916C17.246 35.6295 20.5525 36.9991 24.0002 36.9991V34.9991C21.0829 34.9991 18.2852 33.8402 16.2224 31.7774L14.8082 33.1916ZM24.0002 36.9991C27.4478 36.9991 30.7543 35.6295 33.1921 33.1916L31.7779 31.7774C29.7151 33.8402 26.9174 34.9991 24.0002 34.9991L24.0002 36.9991ZM33.1921 33.1916C35.63 30.7537 36.9995 27.4471 36.9995 23.9994L34.9995 23.9994C34.9995 26.9167 33.8407 29.7146 31.7779 31.7774L33.1921 33.1916ZM36.9995 23.9994C36.9995 20.5517 35.63 17.2452 33.1921 14.8072L31.7779 16.2214C33.8407 18.2843 34.9995 21.0821 34.9995 23.9994L36.9995 23.9994ZM33.1921 14.8072C30.7543 12.3693 27.4478 10.9997 24.0002 10.9997V12.9997C26.9174 12.9997 29.7151 14.1586 31.7779 16.2214L33.1921 14.8072ZM24.0003 17.7996C24.8145 17.7995 25.6207 17.9597 26.3729 18.2711L27.138 16.4232C26.1431 16.0113 25.0768 15.7994 24 15.7996L24.0003 17.7996ZM26.3729 18.2711C27.1251 18.5826 27.8086 19.0391 28.3844 19.6147L29.7984 18.2003C29.0369 17.439 28.1329 16.8352 27.138 16.4232L26.3729 18.2711ZM28.3844 19.6147C28.9602 20.1904 29.417 20.8737 29.7287 21.6259L31.5763 20.8602C31.1641 19.8655 30.5599 18.9616 29.7984 18.2003L28.3844 19.6147ZM29.7287 21.6259C30.0404 22.378 30.2009 23.1842 30.201 23.9984L32.201 23.9981C32.2008 22.9212 31.9885 21.855 31.5763 20.8602L29.7287 21.6259ZM30.201 23.9984C30.2011 24.8126 30.0409 25.6188 29.7295 26.371L31.5774 27.1361C31.9893 26.1412 32.2012 25.0749 32.201 23.9981L30.201 23.9984ZM29.7295 26.371C29.418 27.1233 28.9615 27.8068 28.3859 28.3826L29.8003 29.7966C30.5616 29.035 31.1655 28.131 31.5774 27.1361L29.7295 26.371ZM28.3859 28.3826C27.8103 28.9584 27.1269 29.4152 26.3748 29.7269L27.1405 31.5745C28.1352 31.1623 29.0391 30.5581 29.8003 29.7966L28.3859 28.3826ZM26.3748 29.7269C25.6227 30.0386 24.8165 30.1991 24.0024 30.1992L24.0027 32.1992C25.0795 32.1991 26.1457 31.9868 27.1405 31.5745L26.3748 29.7269ZM24.0026 30.1992C22.3583 30.1992 20.7814 29.5461 19.6188 28.3834L18.2045 29.7976C19.7423 31.3353 21.8279 32.1992 24.0026 32.1992L24.0026 30.1992ZM19.6188 28.3834C18.4561 27.2207 17.8029 25.6437 17.8029 23.9994H15.8029C15.8029 26.1741 16.6668 28.2598 18.2045 29.7976L19.6188 28.3834ZM17.8029 23.9994C17.8029 22.3551 18.4561 20.7782 19.6188 19.6155L18.2045 18.2013C16.6668 19.739 15.8029 21.8247 15.8029 23.9994H17.8029ZM19.6188 19.6155C20.7814 18.4528 22.3583 17.7996 24.0026 17.7996L24.0026 15.7996C21.8279 15.7996 19.7423 16.6635 18.2045 18.2013L19.6188 19.6155ZM36.6019 7.3998C35.5411 7.3998 34.5237 7.82122 33.7736 8.57136L35.1878 9.98555C35.5629 9.6105 36.0715 9.3998 36.6019 9.3998V7.3998ZM33.7736 8.57136C33.0235 9.32149 32.6021 10.3389 32.6021 11.3997H34.6021C34.6021 10.8693 34.8128 10.3606 35.1878 9.98555L33.7736 8.57136ZM32.6021 11.3997C32.6021 12.4606 33.0235 13.478 33.7736 14.2281L35.1878 12.8139C34.8128 12.4388 34.6021 11.9301 34.6021 11.3997H32.6021ZM33.7736 14.2281C34.5237 14.9782 35.5411 15.3997 36.6019 15.3997V13.3997C36.0715 13.3997 35.5629 13.189 35.1878 12.8139L33.7736 14.2281ZM36.6019 15.3997C37.6628 15.3997 38.6801 14.9782 39.4302 14.2281L38.016 12.8139C37.641 13.189 37.1323 13.3997 36.6019 13.3997V15.3997ZM39.4302 14.2281C40.1804 13.478 40.6018 12.4606 40.6018 11.3997H38.6018C38.6018 11.9301 38.3911 12.4388 38.016 12.8139L39.4302 14.2281ZM40.6018 11.3997C40.6018 10.3389 40.1804 9.32149 39.4302 8.57136L38.016 9.98555C38.3911 10.3606 38.6018 10.8693 38.6018 11.3997H40.6018ZM39.4302 8.57136C38.6801 7.82122 37.6628 7.3998 36.6019 7.3998V9.3998C37.1323 9.3998 37.641 9.6105 38.016 9.98555L39.4302 8.57136Z" fill="#FFC526" mask="url(#path-1-inside-1_9_50)"/>
</g>
<defs>
<filter id="filter0_i_9_50" x="0" y="0" width="48" height="48" filterUnits="userSpaceOnUse" color-interpolation-filters="sRGB">
<feFlood flood-opacity="0" result="BackgroundImageFix"/>
<feBlend mode="normal" in="SourceGraphic" in2="BackgroundImageFix" result="shape"/>
<feColorMatrix in="SourceAlpha" type="matrix" values="0 0 0 0 0 0 0 0 0 0 0 0 0 0 0 0 0 0 127 0" result="hardAlpha"/>
<feOffset/>
<feGaussianBlur stdDeviation="4"/>
<feComposite in2="hardAlpha" operator="arithmetic" k2="-1" k3="1"/>
<feColorMatrix type="matrix" values="0 0 0 0 1 0 0 0 0 0.772549 0 0 0 0 0.14902 0 0 0 1 0"/>
<feBlend mode="normal" in2="shape" result="effect1_innerShadow_9_50"/>
</filter>
<clipPath id="clip0_9_50">
<rect width="48" height="48" fill="white"/>
</clipPath>
</defs>
</svg>
