<svg width="48" height="48" viewBox="0 0 48 48" fill="none" xmlns="http://www.w3.org/2000/svg">
<g clip-path="url(#clip0_9_48)">
<g filter="url(#filter0_i_9_48)">
<path d="M0 3.438C0 1.539 1.578 0 3.525 0H44.475C46.422 0 48 1.539 48 3.438V44.562C48 46.461 46.422 48 44.475 48H3.525C1.578 48 0 46.461 0 44.562V3.438ZM14.829 40.182V18.507H7.626V40.182H14.829ZM11.229 15.546C13.74 15.546 15.303 13.884 15.303 11.802C15.258 9.675 13.743 8.058 11.277 8.058C8.811 8.058 7.2 9.678 7.2 11.802C7.2 13.884 8.763 15.546 11.181 15.546H11.229ZM25.953 40.182V28.077C25.953 27.429 26.001 26.781 26.193 26.319C26.712 25.026 27.897 23.685 29.889 23.685C32.496 23.685 33.537 25.671 33.537 28.587V40.182H40.74V27.75C40.74 21.09 37.188 17.994 32.448 17.994C28.626 17.994 26.913 20.094 25.953 21.573V21.648H25.905L25.953 21.573V18.507H18.753C18.843 20.541 18.753 40.182 18.753 40.182H25.953Z" fill="white"/>
</g>
<path d="M14.829 40.682H15.329V40.182V18.507V18.007H14.829H7.626H7.126V18.507V40.182V40.682H7.626H14.829ZM15.803 11.802H15.8031L15.8029 11.7914C15.7779 10.6097 15.3422 9.54385 14.5455 8.77303C13.7479 8.00132 12.6224 7.558 11.277 7.558C9.93277 7.558 8.78572 8.00115 7.97071 8.76974C7.15477 9.5392 6.7 10.609 6.7 11.802C6.7 14.1719 8.49881 16.046 11.181 16.046H11.229C12.5974 16.046 13.745 15.5912 14.5537 14.8156C15.3621 14.0403 15.803 12.9715 15.803 11.802ZM25.953 40.682H26.453V40.182V28.077C26.453 27.4317 26.5043 26.8728 26.6547 26.5109L26.6548 26.5109L26.657 26.5053C27.1283 25.3311 28.168 24.185 29.889 24.185C31.0452 24.185 31.794 24.614 32.2773 25.3239C32.7824 26.0658 33.037 27.1743 33.037 28.587V40.182V40.682H33.537H40.74H41.24V40.182V27.75C41.24 24.3341 40.3283 21.76 38.7392 20.0357C37.1464 18.3073 34.9293 17.494 32.448 17.494C30.4377 17.494 28.9543 18.0486 27.8428 18.8177C27.2875 19.2019 26.8318 19.635 26.453 20.0675V18.507V18.007H25.953H18.753H18.2304L18.2535 18.5291C18.2978 19.5309 18.298 24.9315 18.2868 30.1062C18.2811 32.6881 18.2727 35.2065 18.2657 37.0794C18.2621 38.0159 18.259 38.791 18.2567 39.332L18.254 39.9587L18.2533 40.1233L18.2531 40.1655L18.253 40.1761L18.253 40.1788L18.253 40.1795C18.253 40.1796 18.253 40.1797 18.753 40.182L18.253 40.1797L18.2507 40.682H18.753H25.953ZM0.5 3.438C0.5 1.82685 1.84228 0.5 3.525 0.5H44.475C46.1577 0.5 47.5 1.82685 47.5 3.438V44.562C47.5 46.1731 46.1577 47.5 44.475 47.5H3.525C1.84228 47.5 0.5 46.1731 0.5 44.562V3.438Z" stroke="#FFC526"/>
</g>
<defs>
<filter id="filter0_i_9_48" x="0" y="0" width="48" height="48" filterUnits="userSpaceOnUse" color-interpolation-filters="sRGB">
<feFlood flood-opacity="0" result="BackgroundImageFix"/>
<feBlend mode="normal" in="SourceGraphic" in2="BackgroundImageFix" result="shape"/>
<feColorMatrix in="SourceAlpha" type="matrix" values="0 0 0 0 0 0 0 0 0 0 0 0 0 0 0 0 0 0 127 0" result="hardAlpha"/>
<feOffset/>
<feGaussianBlur stdDeviation="4"/>
<feComposite in2="hardAlpha" operator="arithmetic" k2="-1" k3="1"/>
<feColorMatrix type="matrix" values="0 0 0 0 1 0 0 0 0 0.772549 0 0 0 0 0.14902 0 0 0 1 0"/>
<feBlend mode="normal" in2="shape" result="effect1_innerShadow_9_48"/>
</filter>
<clipPath id="clip0_9_48">
<rect width="48" height="48" fill="white"/>
</clipPath>
</defs>
</svg>
