<?xml version="1.0" encoding="utf-8"?>
<!-- Generator: Adobe Illustrator 28.3.0, SVG Export Plug-In . SVG Version: 6.00 Build 0)  -->
<svg version="1.1" id="Capa_1" xmlns="http://www.w3.org/2000/svg" xmlns:xlink="http://www.w3.org/1999/xlink" x="0px" y="0px"
	 viewBox="0 0 48 48" style="enable-background:new 0 0 48 48;" xml:space="preserve">
<style type="text/css">
	.st0{fill:#FFC526;}
</style>
<path class="st0" d="M11.7,0h24.7C42.8,0,48,5.2,48,11.7v24.7C48,42.8,42.8,48,36.3,48H11.7C5.2,48,0,42.8,0,36.3V11.7
	C0,5.2,5.2,0,11.7,0z M14.8,40.2V18.5H7.6v21.7H14.8z M11.2,15.5c2.5,0,4.1-1.7,4.1-3.7c0-2.1-1.6-3.7-4-3.7s-4.1,1.6-4.1,3.7
	C7.2,13.9,8.8,15.5,11.2,15.5L11.2,15.5z M26,40.2V28.1c0-0.6,0-1.3,0.2-1.8c0.5-1.3,1.7-2.6,3.7-2.6c2.6,0,3.6,2,3.6,4.9v11.6h7.2
	V27.8c0-6.7-3.6-9.8-8.3-9.8c-3.8,0-5.5,2.1-6.5,3.6v0.1l0,0v-0.1v-3.1h-7.2c0.1,2,0,21.7,0,21.7H26z"/>
</svg>
