<?xml version="1.0" encoding="utf-8"?>
<!-- Generator: Adobe Illustrator 28.3.0, SVG Export Plug-In . SVG Version: 6.00 Build 0)  -->
<svg version="1.1" id="Capa_1" xmlns="http://www.w3.org/2000/svg" xmlns:xlink="http://www.w3.org/1999/xlink" x="0px" y="0px"
	 viewBox="0 0 48 48" style="enable-background:new 0 0 48 48;" xml:space="preserve">
<style type="text/css">
	.st0{fill-rule:evenodd;clip-rule:evenodd;fill:#FFC526;}
</style>
<path class="st0" d="M36.8,0H11.2C5,0,0,5,0,11.2v25.5C0,43,5,48,11.2,48h25.5C43,48,48,43,48,36.8V11.2C48,5,43,0,36.8,0z M42,16
	v16.7c0,1.4-0.5,2.7-1.5,3.6c-0.9,1-2.2,1.6-3.6,1.7h-0.3H11.4c-1.4,0-2.7-0.5-3.7-1.4S6.1,34.4,6,33.1v-0.3V16l17,11.1l0.2,0.1
	c0.2,0.1,0.5,0.2,0.8,0.2s0.5-0.1,0.8-0.2l0.2-0.1L42,16z M41,12.6C40.1,11,38.4,10,36.5,10h-25h-0.4c-0.8,0.1-1.7,0.3-2.4,0.8
	c-0.7,0.4-1.3,1.1-1.8,1.8L24,24L41,12.6z"/>
</svg>
