<svg width="48" height="48" viewBox="0 0 48 48" fill="none" xmlns="http://www.w3.org/2000/svg">
<g clip-path="url(#clip0_9_52)">
<g filter="url(#filter0_i_9_52)">
<mask id="path-1-inside-1_9_52" fill="white">
<path fill-rule="evenodd" clip-rule="evenodd" d="M36.75 0H11.25C5.0368 0 0 5.0368 0 11.25V36.75C0 42.9632 5.0368 48 11.25 48H36.75C42.9632 48 48 42.9632 48 36.75V11.25C48 5.0368 42.9632 0 36.75 0ZM42 16V32.7052C42.0001 34.0557 41.4738 35.3553 40.5289 36.3379C39.584 37.3205 38.2918 37.9119 36.9168 37.9912L36.6 38H11.4C10.0226 38.0001 8.69727 37.4841 7.69513 36.5575C6.69299 35.631 6.08981 34.364 6.009 33.0158L6 32.7052V16L23.001 27.1138L23.2098 27.2303C23.4559 27.3482 23.7261 27.4095 24 27.4095C24.2739 27.4095 24.5441 27.3482 24.7902 27.2303L24.999 27.1138L42 16ZM41 12.5623C40.0606 11.0235 38.3757 10 36.4542 10H11.5458L11.1882 10.0126C10.3392 10.0699 9.5162 10.3312 8.78766 10.7748C8.05912 11.2183 7.4462 11.8312 7 12.5623L24 24L41 12.5623Z"/>
</mask>
<path fill-rule="evenodd" clip-rule="evenodd" d="M36.75 0H11.25C5.0368 0 0 5.0368 0 11.25V36.75C0 42.9632 5.0368 48 11.25 48H36.75C42.9632 48 48 42.9632 48 36.75V11.25C48 5.0368 42.9632 0 36.75 0ZM42 16V32.7052C42.0001 34.0557 41.4738 35.3553 40.5289 36.3379C39.584 37.3205 38.2918 37.9119 36.9168 37.9912L36.6 38H11.4C10.0226 38.0001 8.69727 37.4841 7.69513 36.5575C6.69299 35.631 6.08981 34.364 6.009 33.0158L6 32.7052V16L23.001 27.1138L23.2098 27.2303C23.4559 27.3482 23.7261 27.4095 24 27.4095C24.2739 27.4095 24.5441 27.3482 24.7902 27.2303L24.999 27.1138L42 16ZM41 12.5623C40.0606 11.0235 38.3757 10 36.4542 10H11.5458L11.1882 10.0126C10.3392 10.0699 9.5162 10.3312 8.78766 10.7748C8.05912 11.2183 7.4462 11.8312 7 12.5623L24 24L41 12.5623Z" fill="white"/>
<path d="M42 32.7052L41 32.7052L41 32.7052L42 32.7052ZM42 16H43V14.1516L41.4528 15.163L42 16ZM36.9168 37.9912L36.9446 38.9908L36.9595 38.9904L36.9743 38.9895L36.9168 37.9912ZM36.6 38V39H36.6139L36.6278 38.9996L36.6 38ZM11.4 38L11.4 37L11.3999 37L11.4 38ZM7.69513 36.5575L8.37399 35.8233L8.37399 35.8233L7.69513 36.5575ZM6.009 33.0158L5.00942 33.0448L5.00987 33.0602L5.01079 33.0756L6.009 33.0158ZM6 32.7052H5V32.7197L5.00042 32.7341L6 32.7052ZM6 16L6.54717 15.163L5 14.1516V16H6ZM23.001 27.1138L22.4538 27.9509L22.4832 27.97L22.5138 27.9871L23.001 27.1138ZM23.2098 27.2303L22.7226 28.1036L22.7497 28.1187L22.7777 28.1322L23.2098 27.2303ZM24.7902 27.2303L25.2223 28.1322L25.2503 28.1187L25.2774 28.1036L24.7902 27.2303ZM24.999 27.1138L25.4862 27.9871L25.5168 27.97L25.5462 27.9509L24.999 27.1138ZM41 12.5623L41.5582 13.392L42.3521 12.8579L41.8535 12.0412L41 12.5623ZM11.5458 10V9H11.5282L11.5107 9.00062L11.5458 10ZM11.1882 10.0126L11.153 9.01319L11.1369 9.01375L11.1208 9.01484L11.1882 10.0126ZM7 12.5623L6.14641 12.0413L5.64803 12.8579L6.44178 13.392L7 12.5623ZM24 24L23.4418 24.8297L24 25.2053L24.5582 24.8297L24 24ZM11.25 1H36.75V-1H11.25V1ZM1 11.25C1 5.58908 5.58908 1 11.25 1V-1C4.48451 -1 -1 4.48451 -1 11.25H1ZM1 36.75V11.25H-1V36.75H1ZM11.25 47C5.58908 47 1 42.4109 1 36.75H-1C-1 43.5155 4.48451 49 11.25 49V47ZM36.75 47H11.25V49H36.75V47ZM47 36.75C47 42.4109 42.4109 47 36.75 47V49C43.5155 49 49 43.5155 49 36.75H47ZM47 11.25V36.75H49V11.25H47ZM36.75 1C42.4109 1 47 5.58908 47 11.25H49C49 4.48451 43.5155 -1 36.75 -1V1ZM43 32.7052V16H41V32.7052H43ZM41.2497 37.031C42.3719 35.8641 43.0001 34.3168 43 32.7051L41 32.7052C41.0001 33.7946 40.5757 34.8465 39.8081 35.6447L41.2497 37.031ZM36.9743 38.9895C38.5981 38.896 40.1281 38.1974 41.2497 37.031L39.8081 35.6447C39.0399 36.4436 37.9855 36.9279 36.8593 36.9928L36.9743 38.9895ZM36.6278 38.9996L36.9446 38.9908L36.889 36.9916L36.5722 37.0004L36.6278 38.9996ZM11.4 39H36.6V37H11.4V39ZM7.01627 37.2918C8.20509 38.3909 9.77357 39.0001 11.4001 39L11.3999 37C10.2717 37.0001 9.18945 36.5772 8.37399 35.8233L7.01627 37.2918ZM5.01079 33.0756C5.10722 34.6845 5.82686 36.1922 7.01627 37.2918L8.37399 35.8233C7.55911 35.0699 7.0724 34.0436 7.00721 32.956L5.01079 33.0756ZM5.00042 32.7341L5.00942 33.0448L7.00858 32.9868L6.99958 32.6762L5.00042 32.7341ZM5 16V32.7052H7V16H5ZM23.5482 26.2768L6.54717 15.163L5.45283 16.837L22.4538 27.9509L23.5482 26.2768ZM23.697 26.357L23.4882 26.2405L22.5138 27.9871L22.7226 28.1036L23.697 26.357ZM24 26.4095C23.8751 26.4095 23.7525 26.3815 23.6419 26.3285L22.7777 28.1322C23.1592 28.3149 23.5772 28.4095 24 28.4095V26.4095ZM24.3581 26.3285C24.2475 26.3815 24.1249 26.4095 24 26.4095V28.4095C24.4228 28.4095 24.8408 28.3149 25.2223 28.1322L24.3581 26.3285ZM24.5118 26.2405L24.303 26.357L25.2774 28.1036L25.4862 27.9871L24.5118 26.2405ZM41.4528 15.163L24.4518 26.2768L25.5462 27.9509L42.5472 16.837L41.4528 15.163ZM36.4542 11C38.0108 11 39.3799 11.8277 40.1465 13.0833L41.8535 12.0412C40.7412 10.2192 38.7407 9 36.4542 9V11ZM11.5458 11H36.4542V9H11.5458V11ZM11.2233 11.012L11.5809 10.9994L11.5107 9.00062L11.153 9.01319L11.2233 11.012ZM9.30767 11.6289C9.8994 11.2687 10.5673 11.0568 11.2556 11.0103L11.1208 9.01484C10.1112 9.08304 9.13301 9.39379 8.26766 9.9206L9.30767 11.6289ZM7.85359 13.0832C8.21711 12.4876 8.71589 11.9892 9.30767 11.6289L8.26766 9.9206C7.40236 10.4474 6.6753 11.1747 6.14641 12.0413L7.85359 13.0832ZM24.5582 23.1703L7.55822 11.7326L6.44178 13.392L23.4418 24.8297L24.5582 23.1703ZM40.4418 11.7326L23.4418 23.1703L24.5582 24.8297L41.5582 13.392L40.4418 11.7326Z" fill="#FFC526" mask="url(#path-1-inside-1_9_52)"/>
</g>
</g>
<defs>
<filter id="filter0_i_9_52" x="0" y="0" width="48" height="48" filterUnits="userSpaceOnUse" color-interpolation-filters="sRGB">
<feFlood flood-opacity="0" result="BackgroundImageFix"/>
<feBlend mode="normal" in="SourceGraphic" in2="BackgroundImageFix" result="shape"/>
<feColorMatrix in="SourceAlpha" type="matrix" values="0 0 0 0 0 0 0 0 0 0 0 0 0 0 0 0 0 0 127 0" result="hardAlpha"/>
<feOffset/>
<feGaussianBlur stdDeviation="4"/>
<feComposite in2="hardAlpha" operator="arithmetic" k2="-1" k3="1"/>
<feColorMatrix type="matrix" values="0 0 0 0 1 0 0 0 0 0.772549 0 0 0 0 0.14902 0 0 0 1 0"/>
<feBlend mode="normal" in2="shape" result="effect1_innerShadow_9_52"/>
</filter>
<clipPath id="clip0_9_52">
<rect width="48" height="48" fill="white"/>
</clipPath>
</defs>
</svg>
