<?xml version="1.0" encoding="utf-8"?>
<!-- Generator: Adobe Illustrator 28.3.0, SVG Export Plug-In . SVG Version: 6.00 Build 0)  -->
<svg version="1.1" id="Capa_1" xmlns="http://www.w3.org/2000/svg" xmlns:xlink="http://www.w3.org/1999/xlink" x="0px" y="0px"
	 viewBox="0 0 48 48" style="enable-background:new 0 0 48 48;" xml:space="preserve">
<style type="text/css">
	.st0{fill:#FFC526;}
</style>
<g>
	<path class="st0" d="M48,10.9c0-1-0.1-2.1-0.2-3.1c-0.2-0.9-0.5-1.8-0.9-2.6c-0.9-1.7-2.4-3.2-4.1-4c-0.8-0.4-1.7-0.7-2.6-0.9
		c-1-0.1-2.1-0.2-3.1-0.3c-0.4,0-1,0-1.3,0L12.2,0c-0.3,0-0.8,0-1.3,0c-1,0-2.1,0.1-3.1,0.2C6.9,0.4,6,0.7,5.2,1.1
		C3.5,2,2,3.5,1.2,5.2C0.7,6,0.5,6.9,0.3,7.8c-0.1,1-0.2,2.1-0.3,3.1c0,0.4,0,1,0,1.3v23.6c0,0.3,0,0.8,0,1.3c0,1,0.1,2.1,0.2,3.1
		c0.2,0.9,0.5,1.8,0.9,2.6C2,44.5,3.5,46,5.2,46.9c0.8,0.4,1.7,0.7,2.6,0.9c1,0.1,2.1,0.2,3.1,0.3c0.4,0,1,0,1.3,0h23.6
		c0.3,0,0.8,0,1.3,0c1,0,2.1-0.1,3.1-0.2c0.9-0.2,1.8-0.5,2.6-0.9c1.8-0.9,3.2-2.3,4.1-4.1c0.4-0.8,0.7-1.7,0.9-2.6
		c0.1-1,0.2-2.1,0.3-3.1c0-0.4,0-1,0-1.3V12.3C48,11.9,48,11.4,48,10.9z M24.5,40.7L24.5,40.7c-2.9,0-5.7-0.7-8.2-2.1l-9,2.4
		l2.4-8.9C7.8,28.8,7.1,25,7.6,21.3s2.2-7.2,4.9-9.9s6.1-4.4,9.9-4.9c3.7-0.5,7.5,0.3,10.8,2.2s5.8,4.8,7.2,8.3s1.7,7.3,0.7,11
		c-1,3.6-3.1,6.9-6.1,9.1C31.9,39.5,28.3,40.7,24.5,40.7z"/>
	<path class="st0" d="M24.5,10c-2.4,0-4.8,0.6-6.9,1.9c-2.1,1.2-3.8,3-5,5.1s-1.7,4.5-1.7,6.9s0.8,4.8,2.1,6.8l0.3,0.5l-1.4,5
		l5.1-1.3l0.5,0.3c2.1,1.2,4.5,1.9,6.9,1.9l0,0c3.6,0,7-1.4,9.5-4c2.5-2.5,4-6,4-9.5s-1.4-7-4-9.5C31.5,11.4,28.1,10,24.5,10
		L24.5,10z M32.4,29.3c-0.3,0.5-0.7,0.9-1.2,1.3s-1,0.6-1.6,0.7c-0.9,0.1-1.7,0.1-2.6-0.2c-0.8-0.2-1.6-0.5-2.3-0.9
		c-2.8-1.4-5.2-3.5-6.9-6.1c-0.9-1.2-1.5-2.7-1.7-4.2c0-0.6,0.1-1.3,0.4-1.8c0.2-0.6,0.6-1.1,1.1-1.5c0.1-0.2,0.3-0.3,0.5-0.4
		s0.4-0.1,0.6-0.1c0.3,0,0.5,0,0.8,0s0.6-0.1,0.9,0.7c0.3,0.8,1.2,2.8,1.3,3c0.1,0.1,0.1,0.2,0.1,0.4c0,0.1,0,0.2-0.1,0.4
		c-0.1,0.2-0.2,0.5-0.4,0.7c-0.2,0.2-0.4,0.5-0.6,0.7s-0.4,0.4-0.2,0.8c0.6,1,1.4,2,2.3,2.8c1,0.9,2.1,1.5,3.3,2
		c0.4,0.2,0.6,0.2,0.9-0.1c0.2-0.3,1-1.2,1.3-1.6s0.5-0.3,0.9-0.2c0.4,0.1,2.4,1.1,2.8,1.3c0.4,0.2,0.7,0.3,0.8,0.5
		C32.8,28,32.7,28.7,32.4,29.3z"/>
</g>
</svg>
