<svg width="48" height="48" viewBox="0 0 48 48" fill="none" xmlns="http://www.w3.org/2000/svg">
<g clip-path="url(#clip0_9_66)">
<path d="M47.976 10.9133C47.9537 9.88375 47.8711 8.85634 47.7288 7.83639C47.5567 6.9293 47.2637 6.04941 46.8576 5.22026C45.9697 3.4662 44.5455 2.04107 42.792 1.15206C41.9681 0.748174 41.094 0.455984 40.1928 0.283214C39.1651 0.138326 38.1297 0.0541761 37.092 0.0312016C36.6528 0.0144007 36.084 0.00720041 35.82 0.00720041L12.1848 0C11.9208 0 11.352 0.00720034 10.9128 0.0240012C9.88326 0.0463234 8.8559 0.128868 7.836 0.271213C6.92896 0.443302 6.04911 0.736331 5.22 1.14246C3.46603 2.03044 2.04097 3.45472 1.152 5.20826C0.748137 6.03223 0.455961 6.90637 0.2832 7.80759C0.137516 8.83534 0.0525691 9.87079 0.0288002 10.9085C0.0144002 11.3478 0.00480022 11.9166 0.00480022 12.1806L0 35.817C0 36.081 0.00719998 36.6498 0.024 37.0891C0.046321 38.1186 0.128862 39.1461 0.2712 40.166C0.44328 41.0731 0.736294 41.953 1.1424 42.7821C2.03033 44.5362 3.45455 45.9613 5.208 46.8503C6.03192 47.2542 6.90603 47.5464 7.8072 47.7192C8.83495 47.8641 9.87035 47.9482 10.908 47.9712C11.3472 47.988 11.916 47.9952 12.18 47.9952L35.8152 48C36.0792 48 36.648 47.9928 37.0872 47.976C38.1167 47.9537 39.1441 47.8711 40.164 47.7288C41.071 47.5567 41.9509 47.2637 42.78 46.8575C44.5349 45.97 45.9608 44.5456 46.8504 42.7917C47.2543 41.9678 47.5464 41.0936 47.7192 40.1924C47.8649 39.1647 47.9498 38.1292 47.9736 37.0915C47.988 36.6522 47.9976 36.0834 47.9976 35.8194L48 12.1854C48 11.9214 47.9928 11.3526 47.976 10.9133ZM24.5208 40.6988H24.5136C21.6565 40.7009 18.8447 39.9845 16.3368 38.6155L7.2648 40.994L9.6936 32.1304C7.81309 28.867 7.06169 25.0743 7.55592 21.3404C8.05014 17.6065 9.76237 14.1399 12.4271 11.4782C15.0919 8.81644 18.5603 7.10825 22.2947 6.61844C26.029 6.12863 29.8206 6.88458 33.0816 8.76906C36.3426 10.6536 38.8908 13.5613 40.3312 17.0415C41.7715 20.5217 42.0235 24.3798 41.0481 28.0178C40.0728 31.6558 37.9244 34.8704 34.9363 37.1631C31.9481 39.4558 28.2871 40.6987 24.5208 40.6988Z" fill="#FFC526"/>
<path d="M24.5048 10.0023C22.0928 10.0016 19.7246 10.6471 17.6465 11.8717C15.5684 13.0964 13.8564 14.8554 12.6884 16.9658C11.5204 19.0763 10.9391 21.4611 11.005 23.8723C11.0709 26.2835 11.7816 28.633 13.0631 30.6765L13.3843 31.1868L12.0199 36.1663L17.1291 34.8269L17.6211 35.1184C19.7002 36.3521 22.0736 37.0022 24.4912 37H24.498C28.0783 37.0006 31.5123 35.5789 34.0444 33.0475C36.5765 30.5162 37.9994 27.0827 38 23.5023C38.0006 19.9219 36.5789 16.4878 34.0476 13.9557C31.5164 11.4235 28.0829 10.0006 24.5025 10L24.5048 10.0023ZM32.4409 29.2961C32.1427 29.7896 31.7455 30.2158 31.2742 30.5479C30.8029 30.88 30.2679 31.1107 29.7029 31.2255C28.8502 31.372 27.975 31.3174 27.1471 31.0661C26.3616 30.8225 25.5898 30.5366 24.8351 30.2096C22.0327 28.8032 19.6441 26.6924 17.9036 24.0843C16.9538 22.8771 16.3774 21.4187 16.2453 19.8884C16.2348 19.2568 16.3557 18.6299 16.6004 18.0476C16.8451 17.4653 17.2082 16.9402 17.6667 16.5057C17.8027 16.3515 17.9689 16.2269 18.155 16.1396C18.3411 16.0522 18.5432 16.0039 18.7487 15.9977C19.0175 15.9977 19.2885 15.9977 19.5254 16.0114C19.776 16.0228 20.1086 15.9157 20.4366 16.7084C20.7782 17.5194 21.5892 19.5171 21.6894 19.7198C21.7533 19.8262 21.7899 19.9469 21.7959 20.0709C21.8018 20.1949 21.777 20.3185 21.7236 20.4305C21.6218 20.6744 21.4852 20.9023 21.3181 21.1071C21.1131 21.344 20.8921 21.6355 20.7099 21.8178C20.5049 22.0205 20.2953 22.2392 20.53 22.6446C21.1403 23.6874 21.9009 24.6346 22.7873 25.4556C23.751 26.3101 24.8554 26.9914 26.0515 27.4692C26.4569 27.6743 26.6938 27.6378 26.9307 27.3667C27.1676 27.0957 27.9444 26.1822 28.2155 25.7768C28.4865 25.3713 28.7553 25.4396 29.1266 25.574C29.4979 25.7084 31.4956 26.6902 31.901 26.8952C32.3065 27.1002 32.5776 27.1982 32.6778 27.3667C32.7873 28.0192 32.705 28.6895 32.4409 29.2961Z" fill="#FFC526"/>
</g>
<defs>
<clipPath id="clip0_9_66">
<rect width="48" height="48" fill="white"/>
</clipPath>
</defs>
</svg>
