<svg width="48" height="48" viewBox="0 0 48 48" fill="none" xmlns="http://www.w3.org/2000/svg">
<g clip-path="url(#clip0_9_66)">
<g filter="url(#filter0_i_9_66)">
<path d="M47.976 10.9133C47.9537 9.88375 47.8711 8.85634 47.7288 7.83639C47.5567 6.9293 47.2637 6.04941 46.8576 5.22026C45.9697 3.4662 44.5455 2.04107 42.792 1.15206C41.9681 0.748174 41.094 0.455984 40.1928 0.283214C39.1651 0.138326 38.1297 0.0541761 37.092 0.0312016C36.6528 0.0144007 36.084 0.00720041 35.82 0.00720041L12.1848 0C11.9208 0 11.352 0.00720034 10.9128 0.0240012C9.88326 0.0463234 8.8559 0.128868 7.836 0.271213C6.92896 0.443302 6.04911 0.736331 5.22 1.14246C3.46603 2.03044 2.04097 3.45472 1.152 5.20826C0.748137 6.03223 0.455961 6.90637 0.2832 7.80759C0.137516 8.83534 0.0525691 9.87079 0.0288002 10.9085C0.0144002 11.3478 0.00480022 11.9166 0.00480022 12.1806L0 35.817C0 36.081 0.00719998 36.6498 0.024 37.0891C0.046321 38.1186 0.128862 39.1461 0.2712 40.166C0.44328 41.0731 0.736294 41.953 1.1424 42.7821C2.03033 44.5362 3.45455 45.9613 5.208 46.8503C6.03192 47.2542 6.90603 47.5464 7.8072 47.7192C8.83495 47.8641 9.87035 47.9482 10.908 47.9712C11.3472 47.988 11.916 47.9952 12.18 47.9952L35.8152 48C36.0792 48 36.648 47.9928 37.0872 47.976C38.1167 47.9537 39.1441 47.8711 40.164 47.7288C41.071 47.5567 41.9509 47.2637 42.78 46.8575C44.5349 45.97 45.9608 44.5456 46.8504 42.7917C47.2543 41.9678 47.5464 41.0936 47.7192 40.1924C47.8649 39.1647 47.9498 38.1292 47.9736 37.0915C47.988 36.6522 47.9976 36.0834 47.9976 35.8194L48 12.1854C48 11.9214 47.9928 11.3526 47.976 10.9133ZM24.5208 40.6988H24.5136C21.6565 40.7009 18.8446 39.9845 16.3368 38.6155L7.2648 40.994L9.6936 32.1304C7.81309 28.867 7.06169 25.0743 7.55592 21.3404C8.05014 17.6065 9.76237 14.1399 12.4271 11.4782C15.0919 8.81644 18.5603 7.10825 22.2947 6.61844C26.029 6.12863 29.8206 6.88458 33.0816 8.76906C36.3426 10.6535 38.8908 13.5613 40.3312 17.0415C41.7715 20.5217 42.0235 24.3798 41.0481 28.0178C40.0727 31.6558 37.9244 34.8704 34.9363 37.1631C31.9481 39.4558 28.2871 40.6986 24.5208 40.6988Z" fill="white"/>
</g>
<path d="M6.55364 41.6974L6.78258 40.8619L9.15673 32.1977C7.29743 28.8804 6.56076 25.0485 7.06024 21.2748C7.5689 17.4318 9.33116 13.8639 12.0738 11.1244C14.8164 8.38491 18.3862 6.62681 22.2296 6.12269C26.0731 5.61857 29.9755 6.3966 33.3318 8.33615C36.688 10.2757 39.3107 13.2684 40.7932 16.8503C42.2756 20.4321 42.535 24.403 41.5311 28.1473C40.5272 31.8916 38.3161 35.2001 35.2407 37.5598C32.1652 39.9195 28.3972 41.1986 24.5208 41.1988H24.514L6.55364 41.6974ZM6.55364 41.6974L7.39161 41.4777L16.2731 39.1491L6.55364 41.6974ZM47.4761 10.9242L47.4761 10.9242L47.4764 10.9325C47.4929 11.3639 47.5 11.9262 47.5 12.1854L47.4976 35.8193C47.4976 36.0768 47.4881 36.64 47.4738 37.0751L47.4737 37.08C47.4505 38.094 47.3677 39.1058 47.2259 40.1101C47.0614 40.9624 46.7847 41.789 46.403 42.5685C45.5619 44.2252 44.2148 45.5708 42.5571 46.4099C41.7727 46.7939 40.9405 47.0714 40.0827 47.2353C39.0861 47.3739 38.0823 47.4543 37.0764 47.4761L37.0764 47.476L37.0681 47.4764C36.6367 47.4929 36.0745 47.5 35.8153 47.5C35.8153 47.5 35.8152 47.5 35.8152 47.5L12.1801 47.4952H12.18C11.9208 47.4952 11.3586 47.4881 10.9271 47.4716L10.9271 47.4715L10.9191 47.4713C9.90522 47.4489 8.89354 47.3669 7.88931 47.2258C7.03712 47.0613 6.21048 46.7846 5.431 46.4028C3.77485 45.5623 2.42948 44.2161 1.59001 42.5593C1.20609 41.7748 0.928542 40.9426 0.7647 40.0847C0.626101 39.0881 0.545692 38.0842 0.523883 37.0782L0.523951 37.0782L0.523635 37.0699C0.507132 36.6385 0.500002 36.0763 0.5 35.8171C0.5 35.8171 0.5 35.817 0.5 35.817L0.5048 12.1807V12.1806C0.5048 11.9232 0.514268 11.36 0.528532 10.9249L0.528556 10.9249L0.528669 10.92C0.551894 9.90597 0.63466 8.89419 0.776536 7.88989C0.940999 7.03762 1.21772 6.2109 1.59948 5.43135C2.43996 3.77505 3.78619 2.42956 5.4429 1.59003C6.22735 1.20611 7.05949 0.928561 7.9173 0.764716C8.91388 0.626108 9.9177 0.545694 10.9236 0.523884L10.9236 0.523952L10.9319 0.523636C11.3633 0.507134 11.9254 0.500003 12.1846 0.5C12.1847 0.5 12.1848 0.5 12.1848 0.5L35.8198 0.5072H35.82C36.0792 0.5072 36.6414 0.514331 37.0729 0.530836V0.530901L37.0809 0.531079C38.0948 0.553527 39.1064 0.635505 40.1107 0.776584C40.9629 0.941061 41.7895 1.21779 42.5689 1.59956C44.2251 2.44007 45.5705 3.78636 46.41 5.44317C46.7939 6.22764 47.0715 7.05983 47.2353 7.91768C47.3739 8.91431 47.4543 9.91818 47.4761 10.9242Z" stroke="#FFC526"/>
<g filter="url(#filter1_i_9_66)">
<path d="M24.5048 10.0023C22.0928 10.0016 19.7246 10.6471 17.6465 11.8717C15.5684 13.0964 13.8564 14.8554 12.6884 16.9658C11.5204 19.0763 10.9391 21.4611 11.005 23.8723C11.0709 26.2835 11.7816 28.633 13.0631 30.6765L13.3843 31.1868L12.0199 36.1663L17.1291 34.8269L17.6211 35.1184C19.7002 36.3521 22.0736 37.0022 24.4912 37H24.498C28.0783 37.0006 31.5123 35.5789 34.0444 33.0475C36.5765 30.5162 37.9994 27.0827 38 23.5023C38.0006 19.9219 36.5789 16.4878 34.0476 13.9557C31.5164 11.4235 28.0829 10.0006 24.5025 10L24.5048 10.0023ZM32.4409 29.2961C32.1427 29.7896 31.7455 30.2158 31.2742 30.5479C30.8029 30.88 30.2679 31.1107 29.7029 31.2255C28.8502 31.372 27.975 31.3174 27.1471 31.0661C26.3616 30.8225 25.5898 30.5366 24.8351 30.2096C22.0327 28.8032 19.6441 26.6924 17.9036 24.0843C16.9538 22.8771 16.3774 21.4187 16.2453 19.8884C16.2348 19.2568 16.3557 18.6299 16.6004 18.0476C16.8451 17.4653 17.2082 16.9402 17.6667 16.5057C17.8027 16.3515 17.9689 16.2269 18.155 16.1396C18.3411 16.0522 18.5432 16.0039 18.7487 15.9977C19.0175 15.9977 19.2885 15.9977 19.5254 16.0114C19.776 16.0228 20.1086 15.9157 20.4366 16.7084C20.7782 17.5194 21.5892 19.5171 21.6894 19.7198C21.7533 19.8262 21.7899 19.9469 21.7959 20.0709C21.8018 20.1949 21.777 20.3185 21.7236 20.4305C21.6218 20.6744 21.4852 20.9023 21.3181 21.1071C21.1131 21.344 20.8921 21.6355 20.7099 21.8178C20.5049 22.0205 20.2953 22.2392 20.53 22.6446C21.1403 23.6874 21.9009 24.6346 22.7873 25.4556C23.751 26.3101 24.8554 26.9914 26.0515 27.4692C26.4569 27.6743 26.6938 27.6378 26.9307 27.3667C27.1676 27.0957 27.9444 26.1822 28.2155 25.7768C28.4865 25.3713 28.7553 25.4396 29.1266 25.574C29.4979 25.7084 31.4956 26.6902 31.901 26.8952C32.3065 27.1002 32.5776 27.1982 32.6778 27.3667C32.7873 28.0192 32.705 28.6895 32.4409 29.2961Z" fill="white"/>
</g>
<path d="M24.5047 10.5023L24.7475 10.5023C28.1065 10.5662 31.3143 11.9286 33.694 14.3092C36.1315 16.7475 37.5006 20.0544 37.5 23.5022C37.4994 26.95 36.1292 30.2564 33.6909 32.6939C31.2526 35.1315 27.9458 36.5006 24.4981 36.5H24.498H24.4912L24.4907 36.5C22.1631 36.5021 19.878 35.8762 17.8763 34.6884L17.876 34.6883L17.384 34.3967L17.2043 34.2903L17.0023 34.3432L12.731 35.463L13.8665 31.3189L13.9247 31.1067L13.8075 30.9204L13.4867 30.4109C13.4867 30.4108 13.4867 30.4108 13.4867 30.4108C12.2526 28.443 11.5683 26.1805 11.5049 23.8586C11.4414 21.5367 12.0011 19.2402 13.1259 17.2079C14.2506 15.1756 15.8992 13.4818 17.9003 12.3025C19.9014 11.1232 22.1819 10.5016 24.5047 10.5023ZM32.8688 29.5547L32.886 29.5262L32.8993 29.4957C33.2021 28.8003 33.2964 28.032 33.1709 27.284L33.1554 27.1917L33.1075 27.1112C32.9828 26.9014 32.7817 26.7809 32.6426 26.7053C32.5623 26.6617 32.4525 26.6084 32.3413 26.5545C32.2676 26.5187 32.1933 26.4827 32.1266 26.449C31.9201 26.3446 31.3163 26.0464 30.7183 25.7578C30.1359 25.4768 29.5132 25.1822 29.2968 25.1039L29.2922 25.1022C29.1224 25.0408 28.8561 24.9444 28.5769 24.9762C28.2395 25.0146 27.9889 25.2161 27.7998 25.4989C27.5502 25.8723 26.7966 26.7604 26.5543 27.0377C26.5192 27.0779 26.4972 27.0944 26.4882 27.1002C26.4718 27.0992 26.4108 27.0907 26.2771 27.023L26.2574 27.0131L26.237 27.0049C25.0962 26.5492 24.0427 25.8996 23.1231 25.0851C22.2747 24.2986 21.5466 23.3916 20.9622 22.3932C20.941 22.3566 20.9323 22.3328 20.9287 22.3206C20.9327 22.3141 20.9396 22.3041 20.9509 22.2901C20.9761 22.259 21.0091 22.2251 21.0615 22.1733L21.0635 22.1713C21.1955 22.0393 21.3609 21.8383 21.5059 21.6621C21.5762 21.5768 21.6417 21.4972 21.6962 21.4342L21.7009 21.4288L21.7054 21.4233C21.9007 21.184 22.0608 20.9181 22.1806 20.6335C22.2656 20.4501 22.305 20.2489 22.2953 20.0469C22.2858 19.8496 22.2298 19.6575 22.132 19.4862L22.1195 19.4586C22.1092 19.4353 22.0961 19.4052 22.0803 19.3684C22.0488 19.2949 22.0082 19.1987 21.9607 19.085C21.8658 18.8578 21.7448 18.5648 21.6158 18.2517C21.5677 18.1348 21.5184 18.0151 21.4689 17.895C21.2547 17.3745 21.0377 16.8474 20.898 16.5158C20.7127 16.0685 20.4825 15.7652 20.1662 15.6152C19.9036 15.4906 19.5861 15.5096 19.5512 15.5117C19.5499 15.5118 19.549 15.5119 19.5485 15.5119C19.2986 15.4977 19.0179 15.4977 18.7574 15.4977H18.7487H18.7411L18.7336 15.4979C18.4598 15.5062 18.1905 15.5705 17.9425 15.687C17.7016 15.8001 17.4857 15.96 17.3073 16.1575C16.8058 16.6368 16.4082 17.2142 16.1394 17.8539C15.8679 18.5002 15.7337 19.1958 15.7454 19.8967L15.7457 19.9141L15.7472 19.9314C15.8871 21.5523 16.4956 23.0972 17.4985 24.3779C19.2862 27.0507 21.7368 29.2141 24.6108 30.6564L24.6234 30.6627L24.6363 30.6683C25.4075 31.0025 26.1963 31.2947 26.9991 31.5436L27.0019 31.5445C27.9043 31.8185 28.8581 31.878 29.7876 31.7183L29.795 31.717L29.8024 31.7155C30.4352 31.587 31.0344 31.3286 31.5622 30.9566C32.09 30.5847 32.5349 30.1073 32.8688 29.5547Z" stroke="#FFC526"/>
</g>
<defs>
<filter id="filter0_i_9_66" x="0" y="0" width="48" height="48" filterUnits="userSpaceOnUse" color-interpolation-filters="sRGB">
<feFlood flood-opacity="0" result="BackgroundImageFix"/>
<feBlend mode="normal" in="SourceGraphic" in2="BackgroundImageFix" result="shape"/>
<feColorMatrix in="SourceAlpha" type="matrix" values="0 0 0 0 0 0 0 0 0 0 0 0 0 0 0 0 0 0 127 0" result="hardAlpha"/>
<feOffset/>
<feGaussianBlur stdDeviation="4"/>
<feComposite in2="hardAlpha" operator="arithmetic" k2="-1" k3="1"/>
<feColorMatrix type="matrix" values="0 0 0 0 1 0 0 0 0 0.772549 0 0 0 0 0.14902 0 0 0 1 0"/>
<feBlend mode="normal" in2="shape" result="effect1_innerShadow_9_66"/>
</filter>
<filter id="filter1_i_9_66" x="11" y="10" width="27" height="27" filterUnits="userSpaceOnUse" color-interpolation-filters="sRGB">
<feFlood flood-opacity="0" result="BackgroundImageFix"/>
<feBlend mode="normal" in="SourceGraphic" in2="BackgroundImageFix" result="shape"/>
<feColorMatrix in="SourceAlpha" type="matrix" values="0 0 0 0 0 0 0 0 0 0 0 0 0 0 0 0 0 0 127 0" result="hardAlpha"/>
<feOffset/>
<feGaussianBlur stdDeviation="4"/>
<feComposite in2="hardAlpha" operator="arithmetic" k2="-1" k3="1"/>
<feColorMatrix type="matrix" values="0 0 0 0 1 0 0 0 0 0.772549 0 0 0 0 0.14902 0 0 0 1 0"/>
<feBlend mode="normal" in2="shape" result="effect1_innerShadow_9_66"/>
</filter>
<clipPath id="clip0_9_66">
<rect width="48" height="48" fill="white"/>
</clipPath>
</defs>
</svg>
